<?xml version="1.0" standalone="no"?>
<!DOCTYPE svg PUBLIC "-//W3C//DTD SVG 20010904//EN"
 "http://www.w3.org/TR/2001/REC-SVG-20010904/DTD/svg10.dtd">
<svg version="1.0" xmlns="http://www.w3.org/2000/svg"
 width="491.000000pt" height="472.000000pt" viewBox="0 0 491.000000 472.000000"
 preserveAspectRatio="xMidYMid meet">

<g transform="translate(0.000000,472.000000) scale(0.100000,-0.100000)"
fill="#000000" stroke="none">
<path d="M3021 4646 c-27 -15 -50 -52 -51 -81 0 -11 11 -54 24 -95 13 -41 26
-90 29 -107 l6 -32 -52 20 c-168 68 -317 94 -527 93 -133 0 -185 -5 -270 -23
-253 -56 -483 -175 -669 -347 -114 -106 -254 -285 -275 -351 -5 -15 -18 -22
-49 -27 -62 -10 -265 -80 -338 -116 -124 -62 -233 -143 -344 -255 -218 -219
-349 -475 -400 -784 -23 -136 -17 -331 15 -446 109 -402 464 -724 947 -859
237 -66 510 -95 731 -77 76 6 164 18 196 26 126 33 265 101 347 170 l27 22 78
-38 c156 -74 349 -131 559 -166 84 -13 164 -18 336 -17 l226 0 -28 -48 c-158
-267 -451 -503 -749 -602 -184 -61 -251 -71 -475 -71 -186 0 -206 2 -295 27
-52 15 -160 54 -240 87 -128 53 -142 61 -120 69 35 12 227 60 272 67 51 8 92
57 84 99 -9 45 -48 80 -88 79 -67 -2 -435 -94 -556 -139 -35 -13 -47 -25 -68
-67 -33 -63 -32 -84 5 -232 48 -191 107 -356 136 -382 55 -49 145 -16 147 53
0 16 -20 90 -44 164 -25 74 -49 150 -53 168 -7 32 -6 34 16 27 13 -4 74 -27
134 -52 344 -142 490 -172 743 -154 332 24 574 103 824 270 121 81 205 153
306 265 113 124 252 342 252 394 0 16 12 22 60 31 88 17 259 76 354 121 355
169 590 509 647 937 15 112 6 362 -16 463 -38 172 -116 366 -200 501 -79 125
-251 302 -376 386 -159 108 -358 188 -544 219 -134 23 -368 23 -500 0 -121
-20 -304 -80 -412 -134 -94 -48 -238 -144 -308 -205 l-49 -44 -76 52 c-209
146 -477 224 -783 226 l-116 2 30 43 c44 64 173 192 254 252 289 215 684 292
1030 201 144 -37 142 -34 38 -83 -104 -50 -208 -118 -223 -146 -18 -33 -12
-79 15 -105 35 -36 87 -33 145 6 101 68 258 134 381 160 58 12 86 31 100 66
13 34 -17 276 -46 378 -30 104 -46 132 -81 145 -33 13 -44 12 -73 -4z m629
-990 c380 -62 699 -297 874 -644 87 -173 127 -350 127 -567 0 -494 -251 -862
-691 -1010 -349 -118 -729 -137 -1076 -55 -105 24 -258 73 -332 106 l-52 23
41 68 c66 107 154 298 189 410 57 185 71 271 77 488 5 178 3 212 -16 311 -36
190 -84 311 -177 451 l-57 85 44 39 c157 140 396 253 619 293 100 18 324 19
430 2z m-1810 -135 c344 -79 563 -243 689 -513 126 -267 133 -632 21 -982 -94
-293 -237 -501 -405 -588 -241 -125 -569 -142 -950 -49 -282 69 -460 161 -635
328 -270 256 -345 542 -245 929 84 323 324 620 620 766 108 54 257 100 400
124 116 19 394 11 505 -15z"/>
<path d="M3555 3270 c-198 -36 -364 -165 -455 -355 -58 -122 -74 -198 -74
-350 0 -158 17 -232 82 -365 38 -78 61 -110 127 -176 67 -68 98 -90 176 -127
123 -60 207 -77 412 -84 182 -6 205 -2 226 44 18 40 13 73 -17 102 -27 28 -30
28 -182 34 -194 7 -254 18 -355 67 -85 41 -192 135 -164 144 8 2 133 13 278
24 241 19 265 22 286 42 31 29 38 63 21 103 -24 60 -36 61 -376 33 -168 -14
-308 -22 -312 -18 -4 4 -10 31 -14 60 l-7 52 29 0 c16 0 148 9 294 20 146 11
271 20 278 20 27 0 62 48 62 85 0 94 -23 100 -301 81 -123 -9 -253 -19 -288
-22 l-64 -6 8 38 c20 107 112 250 198 308 76 49 142 66 268 66 l107 0 26 31
c14 17 26 39 26 50 0 36 -29 77 -62 88 -45 16 -172 22 -233 11z"/>
<path d="M1353 3470 c-20 -12 -35 -30 -38 -47 -4 -15 -8 -37 -10 -49 -3 -11
-5 -68 -6 -127 l-1 -106 -53 -16 c-108 -31 -203 -115 -259 -230 -94 -193 -82
-352 34 -458 95 -87 158 -106 493 -148 96 -12 137 -33 173 -86 42 -63 39 -148
-8 -208 -28 -35 -149 -92 -236 -111 -37 -7 -120 -14 -185 -14 -112 0 -119 -1
-142 -25 -33 -32 -33 -84 -1 -122 l24 -28 161 0 c89 0 161 0 161 0 0 0 9 -50
19 -112 11 -61 24 -120 30 -130 29 -56 120 -54 153 3 18 31 18 35 -3 164 -11
72 -19 133 -17 134 1 1 35 21 74 44 82 48 116 84 153 162 22 47 26 69 26 150
0 84 -3 101 -28 150 -36 70 -98 135 -160 166 -46 24 -84 31 -349 68 -118 17
-180 41 -224 87 -24 25 -28 37 -28 82 2 113 87 247 181 283 52 20 152 23 303
10 95 -8 95 -8 120 18 33 36 33 88 -1 122 -19 19 -45 29 -105 39 -43 8 -92 14
-108 15 -22 0 -27 4 -22 17 10 26 20 227 12 257 -7 27 -58 66 -86 66 -8 0 -30
-9 -47 -20z"/>
</g>
</svg>
