<?xml version="1.0" encoding="UTF-8"?>
<svg xmlns="http://www.w3.org/2000/svg" xmlns:xlink="http://www.w3.org/1999/xlink" width="506px" height="500px" viewBox="0 0 506 500" version="1.1">
<g id="surface1">
<path style=" stroke:none;fill-rule:nonzero;fill:rgb(0%,0%,0%);fill-opacity:1;" d="M 234.296875 7.046875 C 217.101562 8.957031 196.890625 12.378906 190.554688 14.59375 C 186.734375 15.800781 177.683594 18.820312 170.441406 21.136719 C 146.109375 28.984375 115.035156 46.195312 95.125 62.601562 C 93.214844 64.210938 91.304688 65.417969 90.800781 65.417969 C 88.992188 65.417969 67.371094 87.359375 58.019531 98.832031 C 52.691406 105.273438 45.25 115.238281 41.53125 120.972656 C 34.289062 132.046875 22.324219 155.394531 19.207031 164.152344 C 18.199219 167.167969 16.089844 173.007812 14.582031 177.132812 C 6.132812 200.984375 4.828125 211.453125 4.726562 252.617188 C 4.726562 279.890625 5.027344 288.144531 6.4375 295.589844 C 11.261719 322.363281 24.738281 356.683594 39.015625 378.925781 C 57.71875 407.808594 77.730469 429.046875 106.589844 450.683594 C 115.136719 457.125 144.699219 472.726562 157.671875 477.65625 C 169.539062 482.285156 190.050781 488.023438 206.140625 491.242188 C 220.320312 494.164062 223.839844 494.464844 244.855469 494.867188 C 284.070312 495.570312 306.292969 491.746094 345.210938 477.554688 C 392.773438 460.347656 442.046875 419.382812 468.292969 375.402344 C 478.046875 358.996094 488.90625 333.636719 492.625 318.4375 C 493.832031 313.507812 495.542969 307.164062 496.246094 304.449219 C 498.660156 295.894531 501.777344 266.003906 501.777344 251.105469 C 501.777344 225.441406 496.648438 195.046875 488.101562 170.792969 C 481.363281 151.46875 470.90625 131.039062 458.4375 112.722656 C 435.8125 79.507812 398.40625 48.710938 358.082031 29.992188 C 328.015625 16.003906 282.964844 5.9375 251.390625 6.238281 C 245.558594 6.238281 237.917969 6.640625 234.296875 7.046875 Z M 293.121094 19.023438 C 299.257812 20.230469 306.898438 21.941406 310.214844 22.746094 C 313.535156 23.652344 318.765625 24.960938 321.78125 25.664062 C 342.996094 31.097656 379.5 49.515625 398.203125 64.3125 C 435.8125 94.203125 459.644531 125.503906 476.035156 166.96875 C 482.371094 182.871094 487.195312 200.179688 489.207031 213.867188 C 490.414062 222.019531 492.425781 250.703125 492.125 255.636719 C 490.210938 292.976562 482.167969 324.476562 467.085938 353.964844 C 457.128906 373.492188 455.320312 376.308594 437.21875 400.261719 C 426.558594 414.351562 403.835938 433.976562 380.203125 449.476562 C 366.226562 458.636719 338.371094 471.214844 321.277344 476.046875 C 319.667969 476.550781 315.144531 477.757812 311.222656 478.863281 C 291.210938 484.703125 258.429688 487.820312 235.402344 486.109375 C 227.359375 485.507812 219.617188 484.804688 218.207031 484.5 C 216.800781 484.097656 211.371094 483.089844 206.140625 482.085938 C 194.878906 480.074219 174.667969 474.234375 163.402344 469.808594 C 145.003906 462.558594 129.820312 454.207031 109.203125 439.816406 C 96.332031 430.859375 71.597656 407.507812 63.851562 397.042969 C 62.246094 394.828125 60.234375 392.210938 59.328125 391.304688 C 52.792969 384.058594 42.335938 367.351562 35.195312 352.757812 C 24.433594 330.714844 17.394531 307.164062 13.875 281.300781 C 8.949219 245.570312 12.367188 211.453125 24.738281 174.113281 C 28.054688 164.050781 39.417969 139.492188 43.238281 133.957031 C 44.246094 132.546875 46.757812 128.625 48.871094 125.300781 C 50.980469 121.980469 54.804688 116.648438 57.316406 113.425781 C 59.832031 110.207031 62.546875 106.378906 63.449219 105.074219 C 64.355469 103.664062 65.964844 101.652344 66.96875 100.644531 C 68.078125 99.636719 69.382812 98.128906 69.886719 97.421875 C 78.132812 86.453125 107.695312 60.890625 120.164062 53.945312 C 121.875 53.039062 125.496094 50.824219 128.210938 49.113281 C 152.242188 34.117188 188.242188 21.839844 222.230469 17.007812 C 225.246094 16.605469 240.027344 16.40625 254.910156 16.605469 C 277.738281 16.808594 283.769531 17.210938 293.121094 19.023438 Z M 293.121094 19.023438 "/>
<path style=" stroke:none;fill-rule:nonzero;fill:rgb(0%,0%,0%);fill-opacity:1;" d="M 158.375 103.261719 C 142.1875 107.285156 129.214844 124.195312 123.382812 148.953125 C 120.566406 160.527344 119.359375 174.917969 119.964844 186.59375 C 121.875 218.902344 131.425781 232.992188 154.050781 236.917969 C 161.996094 238.226562 163.707031 238.226562 171.148438 236.917969 C 180.097656 235.207031 184.421875 232.890625 190.351562 226.851562 C 198.398438 218.699219 201.414062 210.949219 203.222656 194.242188 C 208.050781 149.65625 189.550781 106.078125 164.609375 103.261719 C 162.296875 103.058594 159.484375 103.058594 158.375 103.261719 Z M 168.734375 114.433594 C 178.488281 119.363281 188.039062 135.164062 191.460938 152.074219 C 195.984375 174.316406 195.984375 188.605469 191.660156 204.710938 C 189.148438 213.769531 185.527344 220.210938 181 223.53125 C 173.660156 228.863281 157.167969 229.570312 147.316406 225.039062 C 140.476562 221.820312 138.367188 219.605469 134.140625 210.949219 C 130.925781 204.207031 130.523438 202.394531 129.71875 191.125 C 128.410156 173.109375 129.917969 158.3125 134.34375 144.925781 C 138.566406 132.546875 141.484375 127.113281 147.617188 120.570312 C 151.839844 116.042969 158.777344 111.714844 161.894531 111.714844 C 162.699219 111.714844 165.816406 112.921875 168.734375 114.433594 Z M 168.734375 114.433594 "/>
<path style=" stroke:none;fill-rule:nonzero;fill:rgb(0%,0%,0%);fill-opacity:1;" d="M 152.242188 158.515625 C 148.523438 160.425781 143.796875 168.476562 143.796875 172.707031 C 143.894531 180.253906 150.03125 185.183594 159.28125 185.183594 C 166.21875 185.183594 169.035156 183.777344 171.449219 179.148438 C 173.359375 175.421875 173.359375 167.773438 171.449219 164.050781 C 168.53125 158.414062 158.175781 155.496094 152.242188 158.515625 Z M 152.242188 158.515625 "/>
<path style=" stroke:none;fill-rule:nonzero;fill:rgb(0%,0%,0%);fill-opacity:1;" d="M 334.351562 105.574219 C 325 110.003906 317.859375 120.269531 312.226562 137.277344 C 308.40625 148.550781 307.300781 158.011719 307.300781 179.648438 C 307.199219 202.09375 308.105469 207.832031 312.929688 215.78125 C 316.652344 222.019531 318.863281 223.832031 325.804688 226.652344 C 333.445312 229.667969 350.839844 229.871094 358.988281 227.054688 C 369.542969 223.328125 375.476562 214.171875 377.085938 199.074219 C 381.007812 161.230469 373.96875 128.21875 358.082031 110.40625 C 355.164062 107.1875 346.117188 102.65625 342.695312 102.65625 C 341.390625 102.65625 337.667969 103.964844 334.351562 105.574219 Z M 351.34375 117.953125 C 355.066406 122.082031 362.003906 134.863281 362.003906 137.679688 C 362.003906 138.386719 362.90625 140.902344 364.113281 143.214844 C 368.839844 152.675781 368.941406 202.496094 364.316406 210.546875 C 360.996094 216.386719 356.371094 217.894531 341.691406 217.691406 C 325.703125 217.59375 323.488281 216.585938 319.769531 207.832031 C 317.355469 201.992188 317.253906 200.984375 317.253906 180.65625 C 317.355469 158.011719 318.363281 150.765625 323.390625 136.371094 C 328.015625 123.589844 331.9375 117.652344 338.371094 114.230469 C 342.796875 111.917969 346.820312 113.023438 351.34375 117.953125 Z M 351.34375 117.953125 "/>
<path style=" stroke:none;fill-rule:nonzero;fill:rgb(0%,0%,0%);fill-opacity:1;" d="M 333.242188 157.910156 C 324.496094 161.734375 321.78125 178.140625 329.019531 183.375 C 335.054688 187.601562 346.515625 187.5 350.4375 183.171875 C 352.652344 180.757812 354.964844 174.617188 354.964844 171.296875 C 354.964844 167.574219 351.144531 161.230469 347.824219 159.519531 C 344.105469 157.507812 336.058594 156.703125 333.242188 157.910156 Z M 333.242188 157.910156 "/>
<path style=" stroke:none;fill-rule:nonzero;fill:rgb(0%,0%,0%);fill-opacity:1;" d="M 211.167969 317.027344 C 180.398438 318.941406 144.800781 327.292969 133.839844 335.042969 C 132.230469 336.253906 130.621094 337.15625 130.21875 337.15625 C 129.820312 337.15625 126.800781 339.472656 123.582031 342.289062 C 104.578125 358.796875 101.863281 381.238281 116.847656 399.859375 C 121.976562 406.402344 132.433594 415.359375 139.671875 419.6875 C 141.984375 421.09375 145.808594 423.410156 148.121094 424.917969 C 150.433594 426.429688 152.644531 427.738281 153.148438 427.738281 C 153.550781 427.738281 158.578125 429.953125 164.308594 432.769531 C 174.765625 437.703125 178.992188 439.3125 195.078125 444.746094 C 243.546875 461.050781 296.039062 465.480469 325.703125 455.917969 C 337.96875 451.992188 345.007812 447.867188 352.953125 439.816406 C 358.785156 433.976562 360.796875 431.261719 365.625 421.699219 C 366.328125 420.289062 367.9375 415.359375 369.242188 410.628906 C 371.253906 403.078125 371.554688 399.757812 371.554688 382.949219 L 371.554688 363.828125 L 368.339844 357.789062 C 361.703125 345.410156 353.253906 338.867188 332.339844 330.113281 C 325.097656 327.09375 313.734375 324.273438 294.128906 320.953125 C 267.679688 316.425781 241.738281 315.21875 211.167969 317.027344 Z M 271.300781 326.085938 C 292.519531 327.796875 317.15625 333.234375 331.234375 339.269531 C 342.394531 344 342.898438 344.402344 349.632812 350.542969 C 358.585938 358.898438 361.097656 364.53125 361.703125 377.617188 C 363.007812 402.375 357.476562 419.785156 344.40625 432.972656 C 334.046875 443.4375 318.5625 448.46875 293.625 449.476562 C 256.320312 451.085938 219.414062 444.140625 177.984375 427.738281 C 151.738281 417.371094 126.800781 399.253906 119.5625 385.367188 C 116.242188 379.027344 116.242188 367.652344 119.5625 361.3125 C 129.71875 341.585938 163.804688 328.101562 209.660156 325.785156 C 224.242188 324.980469 260.945312 325.179688 271.300781 326.085938 Z M 271.300781 326.085938 "/>
</g>
</svg>
