<?xml version="1.0" encoding="UTF-8"?>
<svg xmlns="http://www.w3.org/2000/svg" xmlns:xlink="http://www.w3.org/1999/xlink" width="544px" height="500px" viewBox="0 0 542 500" version="1.1">
<g id="surface1">
<path style=" stroke:none;fill-rule:nonzero;fill:rgb(0%,0%,0%);fill-opacity:1;" d="M 217.859375 12.851562 C 198.714844 15.625 163.707031 26.460938 147.335938 34.527344 C 109.308594 53.929688 68.757812 91.480469 46.847656 128.023438 C 20.652344 171.875 8.816406 226.816406 14.859375 275.957031 C 33.496094 425.90625 175.796875 519.65625 321.121094 477.570312 C 399.699219 454.636719 464.679688 386.339844 483.820312 306.199219 C 489.613281 281.503906 491.375 240.925781 487.851562 211.441406 L 485.835938 194.808594 L 502.457031 182.710938 C 522.605469 168.347656 528.902344 159.023438 528.902344 143.144531 C 528.902344 127.773438 520.84375 88.207031 513.792969 69.808594 C 502.457031 40.070312 490.117188 33.519531 440.5 30.996094 C 411.539062 29.484375 410.78125 29.738281 394.160156 37.296875 L 377.535156 45.363281 L 361.921875 37.296875 C 317.089844 14.617188 265.960938 6.046875 217.859375 12.851562 Z M 308.527344 27.722656 C 336.988281 35.03125 373.507812 52.671875 371.238281 57.710938 C 364.441406 73.335938 362.171875 84.171875 364.441406 87.953125 C 368.722656 95.011719 376.277344 93.75 387.105469 84.425781 C 399.195312 74.09375 400.457031 73.839844 400.457031 81.148438 C 400.457031 84.425781 402.722656 90.222656 405.242188 94.253906 C 408.011719 98.539062 409.773438 102.570312 409.269531 103.578125 C 407.003906 106.855469 413.550781 120.714844 418.085938 122.226562 C 421.359375 123.234375 422.871094 127.015625 423.625 137.097656 C 424.886719 152.21875 431.9375 163.054688 445.285156 170.613281 C 452.085938 174.394531 454.351562 174.648438 458.382812 171.875 C 462.664062 169.101562 463.671875 169.355469 464.929688 173.136719 C 465.6875 175.65625 468.457031 182.964844 470.976562 189.265625 C 477.273438 204.636719 481.804688 241.683594 479.789062 262.097656 C 476.515625 298.386719 469.96875 322.078125 456.621094 349.042969 C 427.152344 407.511719 380.308594 448.335938 320.363281 467.238281 C 187.132812 509.074219 48.859375 423.640625 26.191406 285.28125 C 16.875 228.832031 29.46875 170.363281 61.453125 122.730469 C 96.714844 69.554688 149.101562 35.03125 211.5625 23.691406 C 237.503906 19.152344 282.585938 20.917969 308.527344 27.722656 Z M 467.703125 43.851562 C 477.019531 45.867188 486.589844 48.136719 488.859375 49.144531 C 497.167969 52.167969 507.242188 80.644531 515.050781 122.730469 C 519.332031 145.414062 519.332031 145.917969 514.296875 154.234375 C 507.242188 165.828125 488.605469 181.453125 482.058594 181.453125 C 480.546875 181.453125 477.019531 175.402344 474 168.09375 C 471.226562 161.039062 468.207031 152.722656 466.945312 150.203125 C 465.183594 145.917969 465.9375 145.414062 474.25 146.925781 C 480.292969 147.933594 484.074219 147.175781 486.085938 144.910156 C 490.871094 139.113281 486.84375 136.59375 469.464844 134.828125 C 448.308594 132.558594 443.523438 135.835938 448.308594 149.949219 C 452.339844 162.550781 449.316406 164.316406 440.5 154.234375 C 434.707031 147.933594 433.195312 143.648438 433.195312 135.082031 C 433.195312 118.449219 437.226562 116.429688 458.886719 121.976562 C 473.496094 125.757812 477.019531 126.007812 478.785156 123.234375 C 481.804688 118.195312 477.019531 114.164062 463.167969 109.628906 C 451.835938 105.847656 442.265625 105.59375 424.382812 108.871094 C 421.359375 109.375 419.09375 108.113281 418.589844 105.34375 C 417.078125 97.78125 429.167969 94.757812 448.8125 98.035156 C 472.738281 102.066406 476.011719 101.5625 476.011719 96.019531 C 476.011719 89.464844 475.507812 89.214844 451.582031 84.425781 C 433.449219 80.644531 430.425781 80.644531 422.367188 83.921875 C 412.039062 88.457031 410.53125 87.449219 410.53125 77.621094 C 410.53125 70.566406 410.53125 70.566406 426.398438 70.566406 C 434.960938 70.566406 447.050781 71.824219 453.09375 73.335938 C 461.910156 75.351562 464.929688 75.101562 467.703125 72.328125 C 472.992188 67.289062 466.441406 61.492188 450.324219 56.703125 C 422.871094 48.640625 398.441406 54.183594 382.320312 72.582031 C 373.757812 82.660156 371.238281 81.652344 375.019531 69.808594 C 378.292969 60.230469 390.882812 46.875 400.457031 43.09375 C 410.027344 39.316406 448.308594 39.820312 467.703125 43.851562 Z M 467.703125 43.851562 "/>
<path style=" stroke:none;fill-rule:nonzero;fill:rgb(0%,0%,0%);fill-opacity:1;" d="M 112.078125 146.167969 C 108.300781 152.46875 115.351562 153.730469 155.144531 153.730469 C 194.6875 153.730469 196.449219 153.476562 196.449219 148.691406 C 196.449219 143.902344 194.6875 143.648438 155.144531 143.648438 C 130.210938 143.648438 113.085938 144.65625 112.078125 146.167969 Z M 112.078125 146.167969 "/>
<path style=" stroke:none;fill-rule:nonzero;fill:rgb(0%,0%,0%);fill-opacity:1;" d="M 288.378906 146.167969 C 284.601562 152.21875 291.402344 153.730469 323.890625 153.730469 C 355.875 153.730469 357.640625 153.476562 357.640625 148.691406 C 357.640625 143.902344 355.875 143.648438 323.890625 143.648438 C 303.992188 143.648438 289.386719 144.65625 288.378906 146.167969 Z M 288.378906 146.167969 "/>
<path style=" stroke:none;fill-rule:nonzero;fill:rgb(0%,0%,0%);fill-opacity:1;" d="M 146.582031 181.199219 C 130.460938 191.53125 124.167969 211.191406 131.972656 226.308594 C 138.773438 239.164062 147.589844 245.210938 161.945312 246.472656 C 173.53125 247.480469 176.300781 246.722656 183.351562 240.675781 C 203.25 223.789062 204.003906 201.613281 185.367188 184.222656 C 176.300781 175.65625 157.664062 174.394531 146.582031 181.199219 Z M 173.027344 189.011719 C 181.085938 192.035156 188.894531 203.125 188.894531 211.695312 C 188.894531 224.292969 176.050781 236.894531 163.457031 236.894531 C 151.367188 236.894531 138.523438 224.042969 138.523438 211.695312 C 138.523438 202.871094 144.566406 193.296875 152.375 190.019531 C 161.691406 185.988281 163.707031 185.734375 173.027344 189.011719 Z M 173.027344 189.011719 "/>
<path style=" stroke:none;fill-rule:nonzero;fill:rgb(0%,0%,0%);fill-opacity:1;" d="M 152.878906 206.148438 C 147.335938 212.199219 147.589844 217.488281 153.128906 222.53125 C 159.175781 228.074219 164.464844 227.824219 169.5 222.277344 C 175.042969 216.230469 174.789062 210.9375 169.25 205.898438 C 163.203125 200.351562 157.914062 200.605469 152.878906 206.148438 Z M 152.878906 206.148438 "/>
<path style=" stroke:none;fill-rule:nonzero;fill:rgb(0%,0%,0%);fill-opacity:1;" d="M 294.675781 182.964844 C 274.527344 200.101562 274.527344 223.285156 295.179688 240.675781 C 302.230469 246.722656 305 247.480469 316.585938 246.472656 C 330.941406 245.210938 339.757812 239.164062 346.558594 226.308594 C 362.425781 195.816406 320.867188 161.039062 294.675781 182.964844 Z M 333.210938 196.574219 C 343.789062 208.417969 341.269531 224.546875 327.417969 232.609375 C 314.824219 240.171875 299.710938 236.390625 293.164062 224.042969 C 288.378906 214.71875 288.628906 207.660156 293.917969 198.839844 C 302.230469 184.726562 321.121094 183.46875 333.210938 196.574219 Z M 333.210938 196.574219 "/>
<path style=" stroke:none;fill-rule:nonzero;fill:rgb(0%,0%,0%);fill-opacity:1;" d="M 303.992188 206.148438 C 298.453125 212.199219 298.703125 217.488281 304.496094 222.78125 C 314.824219 232.105469 328.925781 219.253906 321.121094 207.660156 C 316.585938 200.351562 309.535156 199.847656 303.992188 206.148438 Z M 303.992188 206.148438 "/>
<path style=" stroke:none;fill-rule:nonzero;fill:rgb(0%,0%,0%);fill-opacity:1;" d="M 127.1875 347.78125 C 126.433594 349.042969 126.433594 351.308594 127.1875 352.824219 C 128.953125 355.59375 345.550781 356.601562 348.320312 353.832031 C 349.078125 353.074219 349.078125 350.804688 348.320312 348.789062 C 347.3125 345.765625 329.179688 345.261719 238.007812 345.261719 C 167.738281 345.261719 128.195312 346.269531 127.1875 347.78125 Z M 127.1875 347.78125 "/>
</g>
</svg>
